<svg xmlns="http://www.w3.org/2000/svg" width="212" height="77" viewBox="0 0 212 77" fill="none"><path d="M85.89 24.26H100.12V26.56H88.34V33.21H97.52V35.51H88.34V43.12H100.18V45.42H85.89V24.26Z" fill="#EF9604"></path><path d="M115.98 45.4L106.37 32.08H106.31C106.31 32.11 106.37 33.92 106.37 35.95V45.4H104.01V28.49H106.43L116.01 41.6H116.07C116.07 41.57 116.04 39.85 116.04 37.98V28.5H118.4V45.4H115.98Z" fill="#EF9604"></path><path d="M123.93 40.63C124.17 42.59 125.86 43.86 128.55 43.86C130.85 43.86 132.39 42.89 132.39 40.9C132.39 38.27 129.79 38.06 126.92 37.43C124.84 36.98 122.15 36.22 122.15 32.87C122.15 29.79 124.42 28.16 128.19 28.16C131.63 28.16 133.96 29.52 134.62 32.27L132.54 32.84C132.09 31.15 130.85 30.06 128.34 30.06C125.92 30.06 124.56 31.03 124.56 32.78C124.56 34.83 126.46 35.29 129.12 35.8C131.26 36.22 134.77 36.95 134.77 40.87C134.77 44.19 132.23 45.76 128.55 45.76C125.86 45.76 122.45 44.94 121.78 41.2L123.93 40.63Z" fill="#EF9604"></path><path d="M153.98 40.81C152.56 43.77 149.66 45.76 145.95 45.76C140.78 45.76 136.98 42.04 136.98 36.94C136.98 31.9 140.79 28.15 145.92 28.15C149.3 28.15 152.44 29.75 153.86 33.13L151.62 33.73C151.2 33 149.72 30.32 145.94 30.32C142.1 30.32 139.36 33.04 139.36 36.93C139.36 40.89 142.17 43.58 145.91 43.58C148.69 43.58 150.68 42.1 151.71 40.2L153.98 40.81Z" fill="#EF9604"></path><path d="M160 40.87L158.25 45.4H155.8L162.72 28.49H165.5L172.42 45.4H169.94L168.16 40.87H160ZM165.86 35.04C164.65 32.02 164.14 30.57 164.14 30.51H164.05C164.05 30.57 163.45 32.17 162.24 35.25L160.82 38.81H167.34L165.86 35.04Z" fill="#EF9604"></path><path d="M180.93 28.49C185.19 28.49 187.51 30.57 187.51 33.78C187.51 37.04 185.18 39.04 180.93 39.04H177.79V45.41H175.43V28.49H180.93ZM181.02 37.03C183.74 37.03 185.13 35.79 185.13 33.83C185.13 31.87 183.77 30.6 181.02 30.6H177.79V37.03H181.02Z" fill="#EF9604"></path><path d="M190.66 28.49H202.53V30.7H193.02V35.59H200.36V37.73H193.02V43.2H202.69V45.4H190.67V28.49H190.66Z" fill="#EF9604"></path><path d="M206.08 27.78H205.48V24.76H204.45V24.24H207.12V24.76H206.08V27.78ZM209.03 27.78L208.04 25.03H208L208.03 25.66V27.77H207.44V24.23H208.36L209.32 26.98L210.32 24.23H211.21V27.77H210.59V25.7L210.62 25.03H210.58L209.54 27.77H209.03V27.78Z" fill="#EF9604"></path><path d="M36.36 0.270004L72.47 20.49L63.67 50.34L36.23 76.31L8.84 50.19L0 20.49L36.36 0.270004Z" fill="#EACE45"></path><path d="M36.13 37.43V20.77L16.36 33.82L19.41 49.98L36.13 37.43Z" fill="#E6C956"></path><path d="M36.08 20.49L19.61 9.58002L0.200012 20.38L16.24 33.59L36.08 20.49Z" fill="url(#paint0_linear)"></path><path d="M53.07 50.28L36.29 37.63L19.47 50.26L36.29 65.32L53.07 50.28Z" fill="#E1AD25"></path><path d="M16.09 33.81L0.019989 20.57L4.99999 37.29L19.14 49.96L16.09 33.81Z" fill="url(#paint1_linear)"></path><path d="M53.47 49.92L67.5 37.35L72.37 20.83L56.45 33.76L53.47 49.92Z" fill="url(#paint2_linear)"></path><path d="M53.39 50.34L51.22 62.12L63.67 50.34L67.36 37.82L53.39 50.34Z" fill="url(#paint3_linear)"></path><path d="M19.22 50.38L5.14001 37.76L8.84001 50.18L21.46 62.21L19.22 50.38Z" fill="url(#paint4_linear)"></path><path d="M56.18 33.8L36.39 20.69V37.37L53.18 50.05L56.18 33.8Z" fill="#E1B832"></path><path d="M72.42 20.46L53.04 9.60001L36.55 20.49L56.29 33.56L72.42 20.46Z" fill="url(#paint5_linear)"></path><path d="M36.32 20.33L52.78 9.46001L36.36 0.26001L19.87 9.44001L36.32 20.33Z" fill="url(#paint6_linear)"></path><path d="M36.13 65.52L19.54 50.66L21.78 62.51L36.13 76.2V65.52Z" fill="url(#paint7_linear)"></path><path d="M36.38 65.58V76.16L50.9 62.42L53.08 50.62L36.38 65.58Z" fill="url(#paint8_linear)"></path><path d="M72.42 20.46L36.37 0.26001L72.42 20.46Z" fill="url(#paint9_radial)"></path><path opacity="0.8" fill-rule="evenodd" clip-rule="evenodd" d="M39.9081 2.24283C39.7584 4.36722 39.68 6.56302 39.68 8.81002C39.68 27.4828 45.0973 42.62 51.78 42.62C57.6352 42.62 62.5191 30.9993 63.6387 15.5615L39.9081 2.24283Z" fill="url(#paint10_radial)"></path><defs><linearGradient id="paint0_linear" x1="13.6324" y1="12.6231" x2="23.3638" y2="29.4785" gradientUnits="userSpaceOnUse"><stop offset="0.0969" stop-color="#BD6417"></stop><stop offset="0.114" stop-color="#BE6717"></stop><stop offset="0.3255" stop-color="#CA7D19"></stop><stop offset="0.5416" stop-color="#D48E1A"></stop><stop offset="0.7636" stop-color="#DA991B"></stop><stop offset="1" stop-color="#DC9C1B"></stop></linearGradient><linearGradient id="paint1_linear" x1="0.022789" y1="35.2635" x2="19.1431" y2="35.2635" gradientUnits="userSpaceOnUse"><stop offset="0.0969" stop-color="#BD6417"></stop><stop offset="0.114" stop-color="#BE6717"></stop><stop offset="0.3255" stop-color="#CA7D19"></stop><stop offset="0.5416" stop-color="#D48E1A"></stop><stop offset="0.7636" stop-color="#DA991B"></stop><stop offset="1" stop-color="#DC9C1B"></stop></linearGradient><linearGradient id="paint2_linear" x1="53.468" y1="35.3787" x2="72.3667" y2="35.3787" gradientUnits="userSpaceOnUse"><stop offset="0.5612" stop-color="#DDAF2E"></stop><stop offset="0.6316" stop-color="#DBAA2D"></stop><stop offset="0.8099" stop-color="#D6A12C"></stop><stop offset="1" stop-color="#D59E2B"></stop></linearGradient><linearGradient id="paint3_linear" x1="51.2192" y1="49.9718" x2="67.3616" y2="49.9718" gradientUnits="userSpaceOnUse"><stop offset="0.5612" stop-color="#DDAF2E"></stop><stop offset="0.6316" stop-color="#DBAA2D"></stop><stop offset="0.8099" stop-color="#D6A12C"></stop><stop offset="1" stop-color="#D59E2B"></stop></linearGradient><linearGradient id="paint4_linear" x1="10.9745" y1="52.3109" x2="16.0656" y2="47.2198" gradientUnits="userSpaceOnUse"><stop offset="0.0969" stop-color="#BD6417"></stop><stop offset="0.114" stop-color="#BE6717"></stop><stop offset="0.3255" stop-color="#CA7D19"></stop><stop offset="0.5416" stop-color="#D48E1A"></stop><stop offset="0.7636" stop-color="#DA991B"></stop><stop offset="1" stop-color="#DC9C1B"></stop></linearGradient><linearGradient id="paint5_linear" x1="72.4155" y1="21.581" x2="36.5533" y2="21.581" gradientUnits="userSpaceOnUse"><stop stop-color="#BD6417"></stop><stop offset="0.0542" stop-color="#C67618"></stop><stop offset="0.1502" stop-color="#D5911A"></stop><stop offset="0.2041" stop-color="#DB9C1B"></stop><stop offset="0.4847" stop-color="#DC9C1B"></stop></linearGradient><linearGradient id="paint6_linear" x1="32.2061" y1="2.31581" x2="41.036" y2="17.6097" gradientUnits="userSpaceOnUse"><stop stop-color="#BD6417"></stop><stop offset="1" stop-color="#DC9C1B"></stop></linearGradient><linearGradient id="paint7_linear" x1="25.2623" y1="66.0004" x2="30.9326" y2="60.33" gradientUnits="userSpaceOnUse"><stop offset="0.0969" stop-color="#BD6417"></stop><stop offset="0.114" stop-color="#BE6717"></stop><stop offset="0.3255" stop-color="#CA7D19"></stop><stop offset="0.5416" stop-color="#D48E1A"></stop><stop offset="0.7636" stop-color="#DA991B"></stop><stop offset="1" stop-color="#DC9C1B"></stop></linearGradient><linearGradient id="paint8_linear" x1="33.929" y1="73.7147" x2="55.0489" y2="52.5949" gradientUnits="userSpaceOnUse"><stop offset="0.5612" stop-color="#DDAF2E"></stop><stop offset="0.6316" stop-color="#DBAA2D"></stop><stop offset="0.8099" stop-color="#D6A12C"></stop><stop offset="1" stop-color="#D59E2B"></stop></linearGradient><radialGradient id="paint9_radial" cx="0" cy="0" r="1" gradientUnits="userSpaceOnUse" gradientTransform="translate(54.3892 10.3628) scale(14.6102)"><stop offset="0.1071" stop-color="white"></stop><stop offset="0.6531" stop-color="white" stop-opacity="0"></stop></radialGradient><radialGradient id="paint10_radial" cx="0" cy="0" r="1" gradientUnits="userSpaceOnUse" gradientTransform="translate(51.7814 8.80959) scale(18.4336 26.9897)"><stop offset="0.1071" stop-color="white"></stop><stop offset="0.6531" stop-color="white" stop-opacity="0"></stop></radialGradient></defs></svg>